<svg width="616" height="68" viewBox="0 0 616 68" fill="none" xmlns="http://www.w3.org/2000/svg">
<path fill-rule="evenodd" clip-rule="evenodd" d="M285.08 41.0798H284C283.593 41.0817 283.193 41.0016 282.824 40.8474C282.743 40.8132 282.664 40.7761 282.586 40.735C282.512 40.696 282.439 40.653 282.368 40.6081C282.233 40.5222 282.105 40.4245 281.984 40.3171C281.754 40.111 281.56 39.8737 281.404 39.612C281.345 39.5114 281.291 39.4079 281.243 39.3015C281.116 39.0173 281.033 38.7136 281 38.4001C280.83 36.5798 280.34 34.2995 279 33.1403C277.377 31.739 275.283 31.0026 273.141 31.0798H253.141V41.0798H275.08C275.519 41.0837 275.95 41.1843 276.346 41.3737C276.521 41.4577 276.688 41.5583 276.843 41.6735C277.037 41.8181 277.214 41.986 277.368 42.1735C277.646 42.5124 277.848 42.9079 277.956 43.3317C278.065 43.7565 278.081 44.1989 278 44.6296C277.541 46.86 276.617 48.9694 275.29 50.82C273.672 52.9265 271.526 54.5681 269.07 55.5798C266.395 56.7624 263.495 57.3532 260.57 57.3102H259.641C255.83 57.4069 252.07 56.4186 248.8 54.4597C245.692 52.4958 243.238 49.652 241.75 46.2897L241.632 46.0095C241.538 45.7809 241.447 45.5515 241.359 45.321C241.089 44.611 240.849 43.8903 240.641 43.1599C240.446 42.5583 240.067 42.0329 239.558 41.6599C239.336 41.4977 239.095 41.3679 238.841 41.2722C238.703 41.2204 238.562 41.1784 238.419 41.1472C238.314 41.1247 238.209 41.1081 238.104 41.0964C238.003 41.0856 237.901 41.0798 237.8 41.0798H235.58C234.854 41.0876 234.149 40.8308 233.598 40.3581C233.464 40.2438 233.342 40.1179 233.231 39.9831C233.076 39.7936 232.944 39.5856 232.839 39.3649C232.711 39.0964 232.623 38.8083 232.58 38.5095C232.376 36.9147 232.275 35.3083 232.28 33.6999C232.186 29.36 233.042 25.0524 234.79 21.0798C236.278 17.7184 238.732 14.8747 241.84 12.9099C245.112 10.9587 248.872 9.97724 252.681 10.0798H253.61C258.277 10.0798 261.943 11.2331 264.61 13.5397C267.372 15.987 269.087 19.403 269.4 23.0798H280.61C280.397 18.8151 279.077 14.6794 276.78 11.0798C274.463 7.55243 271.213 4.73798 267.391 2.94989C262.436 0.789736 257.053 -0.207334 251.653 0.0358296C246.253 0.278017 240.981 1.7536 236.24 4.35028C231.432 7.19306 227.54 11.3581 225.03 16.3503C222.345 21.7263 220.997 27.6716 221.101 33.6794C221.099 34.485 221.119 35.2897 221.162 36.0934C221.204 36.8669 221.267 37.6393 221.351 38.4099C221.367 38.5544 221.395 38.697 221.433 38.8366C221.475 38.9929 221.528 39.1442 221.595 39.2907C221.69 39.5036 221.812 39.7058 221.954 39.8913C222.013 39.9675 222.075 40.0407 222.141 40.111C222.177 40.1491 222.214 40.1872 222.252 40.2233L222.282 40.2526L222.344 40.3083C222.897 40.7975 223.611 41.0651 224.351 41.0602H226.431C227.084 41.0593 227.72 41.2712 228.241 41.6647C228.763 42.0583 229.142 42.611 229.32 43.2399C230.006 45.8806 230.902 48.4626 232 50.9597C234.438 55.9108 238.228 60.071 242.931 62.9597C247.845 65.9177 253.495 67.4255 259.23 67.3102C262.073 67.3444 264.905 66.9665 267.641 66.1901C269.904 65.5407 272.061 64.5641 274.04 63.2897C275.637 62.2634 277.069 61.0026 278.29 59.5495V66.3698H288.101V44.0798C288.101 43.6843 288.022 43.2927 287.87 42.9274C287.718 42.5622 287.495 42.2302 287.215 41.9518C286.934 41.6725 286.601 41.4518 286.234 41.3024C285.868 41.153 285.476 41.0768 285.08 41.0798ZM73.8203 41.0798H74.8203C75.6123 41.0856 76.3701 41.404 76.9287 41.9655C77.1094 42.1481 77.2646 42.3503 77.3916 42.5681C77.4395 42.6501 77.4834 42.735 77.5234 42.822C77.5596 42.9011 77.5928 42.9821 77.6221 43.0641C77.7383 43.3874 77.7998 43.7302 77.7998 44.0798V66.3698H66.7998V44.0798C66.7998 43.2849 66.4844 42.5212 65.9209 41.9587C65.3584 41.3962 64.5957 41.0798 63.7998 41.0798H62.7998C62.0039 41.0798 61.2412 40.7643 60.6787 40.2018C60.4971 40.0202 60.3408 39.8181 60.2129 39.6003C60.0693 39.3561 59.9609 39.0925 59.8916 38.8171C59.8311 38.5778 59.7998 38.3308 59.7998 38.0798V10.9802H40.9004V38.0798C40.9004 38.6052 41.0381 39.1179 41.2939 39.5671C41.3643 39.6901 41.4434 39.8093 41.5303 39.9216C41.6064 40.0192 41.6895 40.113 41.7783 40.2018C42.3408 40.7643 43.1045 41.0798 43.9004 41.0798H44.9004C45.1201 41.0798 45.3369 41.1042 45.5469 41.1511C45.6201 41.1677 45.6924 41.1862 45.7637 41.2077C45.834 41.2282 45.9033 41.2516 45.9717 41.278C46.0957 41.3249 46.2168 41.3806 46.333 41.444C46.4873 41.528 46.6357 41.6257 46.7744 41.736C46.8604 41.8054 46.9424 41.8796 47.0215 41.9587C47.2861 42.2233 47.4961 42.5329 47.6445 42.8688C47.8115 43.2468 47.9004 43.6589 47.9004 44.0798V66.3698H36.9004V44.0798C36.9004 43.2849 36.584 42.5212 36.0215 41.9587C35.7461 41.6833 35.4229 41.4665 35.0713 41.3171C34.7041 41.1618 34.3066 41.0798 33.9004 41.0798H32.9004C32.4424 41.0798 31.9951 40.9753 31.5908 40.78C31.293 40.6354 31.0176 40.4411 30.7783 40.2018C30.5625 39.986 30.3838 39.7409 30.2441 39.4763C30.0205 39.0495 29.9004 38.571 29.9004 38.0798V10.9802H11V38.0798C11 38.8757 11.3164 39.6393 11.8789 40.2018C12.1309 40.4538 12.4229 40.6559 12.7402 40.8034C13.1318 40.9841 13.5605 41.0798 14 41.0798H15C15.7959 41.0798 16.5586 41.3962 17.1211 41.9587C17.1924 42.03 17.2598 42.1042 17.3232 42.1813C17.3975 42.2722 17.4658 42.3679 17.5283 42.4665C17.5693 42.5309 17.6084 42.5974 17.6455 42.6657L17.6748 42.7233L17.7178 42.8112C17.9023 43.2048 18 43.6374 18 44.0798V66.3698H7V44.0798C7 43.7038 6.92969 43.3347 6.7959 42.9909C6.64648 42.6081 6.41797 42.2556 6.12109 41.9587C5.55859 41.3962 4.7959 41.0798 4 41.0798H3C2.8457 41.0798 2.69238 41.0681 2.54199 41.0446C1.91602 40.9479 1.33203 40.655 0.878906 40.2018C0.316406 39.6393 0 38.8757 0 38.0798V0.980166H70.8203V38.0798C70.8203 38.3786 70.8643 38.6735 70.9502 38.9548C70.9805 39.0544 71.0156 39.152 71.0557 39.2477C71.0879 39.3229 71.123 39.3972 71.1611 39.4704C71.1982 39.5427 71.2393 39.613 71.2822 39.6823C71.4004 39.8688 71.5391 40.0427 71.6982 40.2018C72.2617 40.7643 73.0244 41.0798 73.8203 41.0798ZM97.6602 41.0798H98.6602L98.7754 41.0817C98.8447 41.0847 98.9141 41.0895 98.9824 41.0964L99.0645 41.1061L99.1572 41.1198C99.3818 41.1569 99.6006 41.2194 99.8115 41.3054C99.9316 41.3552 100.048 41.4118 100.16 41.4763C100.247 41.5261 100.332 41.5798 100.414 41.6384C100.547 41.7331 100.672 41.8395 100.788 41.9558C100.919 42.0856 101.037 42.2282 101.142 42.3796C101.26 42.5515 101.36 42.736 101.44 42.9294C101.464 42.986 101.485 43.0436 101.506 43.1022C101.554 43.2419 101.592 43.3845 101.618 43.528C101.652 43.7097 101.67 43.8942 101.67 44.0798V66.3698H90.46V44.0798C90.46 43.2849 90.1436 42.5212 89.5811 41.9587C89.0186 41.3962 88.2559 41.0798 87.46 41.0798H86.46C86.3418 41.0798 86.2236 41.0729 86.1074 41.0593L86.0391 41.0505L86.001 41.0446L85.9346 41.0339L85.8672 41.0212C85.7383 40.9948 85.6113 40.9606 85.4873 40.9177C85.3213 40.861 85.1602 40.7897 85.0068 40.7048L84.9668 40.6813C84.9434 40.6686 84.9199 40.6559 84.8965 40.6413L84.8066 40.5847C84.7373 40.5388 84.6699 40.4899 84.6055 40.4391C84.5127 40.3659 84.4238 40.2868 84.3389 40.2018C83.7764 39.6393 83.46 38.8757 83.46 38.0798V0.980166H94.6602V38.0798C94.6602 38.8757 94.9756 39.6393 95.5391 40.2018C96.1016 40.7643 96.8643 41.0798 97.6602 41.0798ZM157.36 41.0798H159.641C160.402 41.0759 161.138 41.361 161.697 41.8796C162.256 42.3981 162.597 43.1091 162.65 43.8698V44.5095V66.3698H151.44V47.3395C151.44 47.0651 151.436 46.8005 151.425 46.5466C151.415 46.3308 151.402 46.1227 151.386 45.9216C151.362 45.6335 151.331 45.36 151.292 45.1013C151.245 44.7917 151.187 44.5026 151.117 44.235C150.899 43.3942 150.57 42.7624 150.131 42.3395C149.414 41.7292 148.527 41.3522 147.591 41.2595C146.801 41.1315 146.001 41.071 145.2 41.0798H128.101C127.305 41.0798 126.542 41.3962 125.979 41.9587C125.416 42.5212 125.101 43.2839 125.101 44.0798V66.3698H113.9V44.0798C113.9 43.2839 113.584 42.5212 113.021 41.9587C112.96 41.8972 112.896 41.8376 112.829 41.7819C112.792 41.7507 112.753 41.7194 112.714 41.6901C112.597 41.6013 112.473 41.5212 112.345 41.4509C112.055 41.2907 111.739 41.1804 111.411 41.1237L111.338 41.113L111.24 41.0993L111.141 41.0895L111.067 41.0847C111.012 41.0817 110.956 41.0798 110.9 41.0798H109.9C109.647 41.0798 109.397 41.0475 109.156 40.986C108.64 40.8542 108.163 40.5847 107.779 40.2009C107.423 39.8444 107.165 39.4069 107.024 38.9323C106.943 38.6579 106.9 38.3708 106.9 38.0798V0.980166H136.33C139.894 0.937197 143.417 1.72821 146.62 3.28974C149.584 4.70185 152.104 6.89813 153.91 9.63935C155.681 12.3454 156.606 15.5163 156.57 18.7497C156.703 22.4518 155.69 26.1042 153.67 29.2097C151.719 32.0339 148.916 34.1608 145.67 35.28C149.217 35.28 151.771 36.03 153.33 37.53C153.886 38.0641 154.34 38.694 154.67 39.3893C154.916 39.8952 155.298 40.321 155.773 40.6198C155.821 40.6501 155.869 40.6784 155.918 40.7058C155.97 40.7341 156.022 40.7614 156.075 40.7868C156.146 40.821 156.219 40.8522 156.293 40.8806C156.343 40.8991 156.394 40.9167 156.444 40.9333L156.539 40.9626C156.805 41.0388 157.081 41.0788 157.36 41.0798ZM140 29.8503C141.667 29.0583 143.06 27.7868 144 26.1999C144.938 24.5173 145.407 22.6149 145.36 20.6901C145.387 17.4431 144.387 15.0134 142.36 13.4001C140.334 11.7868 137.391 10.9802 133.53 10.9802H118.11V31.1501H133.511C135.744 31.2165 137.964 30.7722 140 29.8503ZM307.71 44.0798C307.71 43.7536 307.764 43.4323 307.865 43.1286C308.011 42.6921 308.257 42.2907 308.589 41.9587C308.814 41.7331 309.071 41.5475 309.35 41.4059C309.768 41.1931 310.232 41.0798 310.71 41.0798H332.71V31.0798H300.72V10.9802H338.279V0.980166H289.51V38.0798C289.51 38.8757 289.826 39.6393 290.389 40.2018C290.951 40.7643 291.714 41.0798 292.51 41.0798H293.51C294.306 41.0798 295.068 41.3962 295.631 41.9587C296.193 42.5212 296.51 43.2849 296.51 44.0798V66.3698H346.21V56.3698H307.71V44.0798ZM215.76 41.0798H219.51C219.993 41.0739 220.468 41.2155 220.869 41.485C221.138 41.6647 221.365 41.8972 221.54 42.1647C221.627 42.2985 221.7 42.4401 221.76 42.5895L231 66.3893H166.14L174.87 44.3298C175.014 43.9694 175.067 43.5788 175.025 43.1931C175.009 43.0388 174.977 42.8864 174.93 42.739C174.898 42.6393 174.86 42.5417 174.816 42.447C174.797 42.4059 174.776 42.3659 174.755 42.3268C174.717 42.2556 174.675 42.1852 174.629 42.1169C174.411 41.7966 174.117 41.5339 173.773 41.3532C173.581 41.2516 173.376 41.1774 173.165 41.1315C173 41.0964 172.83 41.0788 172.659 41.0798C172.269 41.0798 171.884 40.9841 171.538 40.8015C171.192 40.6179 170.897 40.3532 170.679 40.029C170.459 39.7058 170.323 39.3327 170.281 38.944C170.255 38.6999 170.267 38.4538 170.315 38.2145C170.344 38.0729 170.386 37.9343 170.439 37.7995L185 0.999697H198.55L213.55 39.5593C213.586 39.653 213.628 39.7448 213.676 39.8327C213.734 39.9411 213.801 40.0456 213.875 40.1433C213.932 40.2175 213.992 40.2888 214.057 40.3561C214.166 40.4694 214.287 40.5729 214.419 40.6628C214.813 40.9333 215.281 41.0788 215.76 41.0798ZM186.31 44.3093L181.63 56.4802L215.359 56.4597L210 42.5798C209.826 42.1354 209.521 41.7546 209.127 41.487C208.732 41.2194 208.267 41.0768 207.79 41.0798H204.06C203.574 41.0847 203.1 40.9401 202.699 40.6667C202.299 40.3933 201.991 40.0036 201.819 39.5495L191.46 12.7097L181.779 37.8395C181.745 37.9294 181.716 38.0212 181.692 38.114L181.677 38.1784C181.667 38.2194 181.659 38.2604 181.652 38.3015C181.614 38.5231 181.608 38.7497 181.635 38.9743C181.68 39.3581 181.816 39.7263 182.035 40.0446C182.254 40.364 182.547 40.6247 182.89 40.8054C183.231 40.986 183.613 41.0798 184 41.0798H184.09C184.15 41.0798 184.211 41.0817 184.271 41.0866C184.346 41.0925 184.419 41.1013 184.492 41.114L184.573 41.1296C184.612 41.1374 184.651 41.1462 184.69 41.1569C184.758 41.1745 184.824 41.195 184.89 41.2184C184.994 41.2565 185.097 41.3015 185.196 41.3542C185.537 41.5339 185.83 41.7936 186.048 42.112C186.267 42.4294 186.404 42.7956 186.45 43.1784C186.479 43.4157 186.471 43.6559 186.428 43.8893C186.401 44.0319 186.361 44.1725 186.31 44.3093ZM395.84 0.959658H376.08V66.4792H395.84C412.48 66.4792 427.04 51.9196 427.04 33.7194C427.04 15.5192 412.48 0.959658 395.84 0.959658ZM395.84 57.1198H386V10.32H395.88C406.7 10.32 417.2 20.1999 417.2 33.7194C417.2 47.2399 406.66 57.0798 395.84 57.0798V57.1198ZM434.32 33.7204C434.32 14.9997 448.88 0.440126 465.521 0.440126C482.16 0.440126 496.721 14.9997 496.721 33.7204C496.721 52.4401 482.16 66.9997 465.521 66.9997C448.88 66.9997 434.32 52.4401 434.32 33.7204ZM444.2 33.7204C444.2 47.86 454.71 58.1599 465.521 58.1599C476.34 58.1599 486.84 47.8698 486.84 33.7204C486.84 19.57 476.33 9.27997 465.521 9.27997C454.71 9.27997 444.2 19.5798 444.2 33.7204ZM535.2 58.1599C524.39 58.1599 513.88 47.86 513.88 33.7204C513.88 19.5798 524.39 9.27997 535.2 9.27997C544.77 9.27997 550.7 15.5202 552.88 23.28H563.28C560.28 10.8005 549.76 0.400087 535.2 0.400087C518.56 0.400087 504 14.9597 504 33.6804C504 52.4001 518.56 66.9597 535.2 66.9597C550.2 66.9597 560.79 56.5602 563.8 44.0798H553.4C551.22 51.82 545.29 58.1599 535.2 58.1599ZM593 9.27997C585.68 9.27997 581 13.9597 581 18.6403C581 24.444 587.413 26.4147 594.739 28.6667C604.479 31.6599 615.834 35.1491 615.88 48.8005C615.88 58.2604 607.04 66.9997 593 66.9997C578.96 66.9997 570.64 58.7204 570.64 46.7204H580.52C580.52 54.1003 584.68 58.1599 593 58.1599C601.84 58.1599 606 54.1003 606 48.8005C606 42.3395 599.14 40.1784 591.507 37.7751C581.939 34.7624 571.159 31.3669 571.159 18.6403C571.159 9.1706 580 0.440126 593 0.440126C605.479 0.440126 614.319 9.38056 614.319 20.7204H604.439C604.439 13.9597 599.76 9.27997 593 9.27997Z" fill="#FDFF5D"/>
</svg>
